# xmcd
#
# Track frame offsets:
# 187
# 11937
# 26812
# 40062
# 50212
# 64462
# 83962
# 96487
# 114787
#
# Disc length: 1717 seconds
#
# Revision: 1
# Processed by: cddbd v1.4PL0 Copyright (c) Steve Scherf et al.
# Submitted via: CedeCatalogueitor 2.5 http://usuarios.lycos.es/kakasboy
#
DISCID=7d06b309
DTITLE=Varios - The Lady Sings The Blues CD 1
DYEAR=1995
DGENRE=
TTITLE0=Piece Of My Heart
TTITLE1=Fever
TTITLE2=Cry Me A River
TTITLE3=Call Me Irresponsible
TTITLE4=I Never Loved A Man
TTITLE5=Help Me Make It Through The Night
TTITLE6=Today I Sing The Blues
TTITLE7=I´d Rather Go Blind
TTITLE8=Basin Street Blues
EXTD=
EXTT0=
EXTT1=
EXTT2=
EXTT3=
EXTT4=
EXTT5=
EXTT6=
EXTT7=
EXTT8=
PLAYORDER=
